<svg xmlns="http://www.w3.org/2000/svg" width="30" height="30" fill="none" viewBox="0 0 30 30"><rect width="14" height="20" fill="#6756BD" rx="5"/><rect width="14" height="20" x="16" fill="#4987FC" rx="5"/><rect width="30" height="8" y="22" fill="#FAE387" rx="4"/><path fill="url(#paint0_linear_33_16)" fill-rule="evenodd" d="M5 22C5.55229 22 6 21.5523 6 21C6 20.4477 5.55229 20 5 20H9C8.44771 20 8 20.4477 8 21C8 21.5523 8.44771 22 9 22H5Z" clip-rule="evenodd"/><path fill="url(#paint1_linear_33_16)" fill-rule="evenodd" d="M21 22C21.5523 22 22 21.5523 22 21C22 20.4477 21.5523 20 21 20H25C24.4477 20 24 20.4477 24 21C24 21.5523 24.4477 22 25 22H21Z" clip-rule="evenodd"/><path fill="url(#paint2_linear_33_16)" fill-rule="evenodd" d="M14 8C14 8.55228 14.4477 9 15 9C15.5523 9 16 8.55228 16 8L16 12C16 11.4477 15.5523 11 15 11C14.4477 11 14 11.4477 14 12L14 8Z" clip-rule="evenodd"/><defs><linearGradient id="paint0_linear_33_16" x1="7" x2="7" y1="20" y2="22" gradientUnits="userSpaceOnUse"><stop stop-color="#6756BD"/><stop offset="1" stop-color="#FAE387"/></linearGradient><linearGradient id="paint1_linear_33_16" x1="23" x2="23" y1="20" y2="22" gradientUnits="userSpaceOnUse"><stop stop-color="#4987FC"/><stop offset="1" stop-color="#FAE387"/></linearGradient><linearGradient id="paint2_linear_33_16" x1="16" x2="14" y1="10" y2="10" gradientUnits="userSpaceOnUse"><stop stop-color="#4987FC"/><stop offset="1" stop-color="#6756BD"/></linearGradient></defs></svg>